<svg height="496pt" viewBox="0 -3 496 496" width="496pt" xmlns="http://www.w3.org/2000/svg" xmlns:xlink="http://www.w3.org/1999/xlink"><linearGradient id="a" gradientUnits="userSpaceOnUse" x1="248" x2="248" y1="489.92" y2="-.0016"><stop offset="0" stop-color="#9f2fff"/><stop offset="1" stop-color="#0bb1d3"/></linearGradient><path d="m272 393.921875h16v16h-16zm32 16h16v-16h-16zm32 0h16v-16h-16zm-144-240c13.230469 0 24 10.765625 24 24 0 13.230469-10.769531 24-24 24s-24-10.769531-24-24c0-13.234375 10.769531-24 24-24zm0 16c-4.40625 0-8 3.589844-8 8 0 4.40625 3.59375 8 8 8s8-3.59375 8-8c0-4.410156-3.59375-8-8-8zm304 208v48c0 26.46875-21.527344 48-48 48s-48-21.53125-48-48v-48c0-23.738281 17.335938-43.449219 40-47.28125v-20.71875c0-15.441406-12.558594-28-28-28s-28 12.558594-28 28v92c0 13.230469-10.769531 24-24 24h-104v32h32v16h-208v-16h32v-32h-88c-13.230469 0-24-10.769531-24-24v-208c0-13.234375 10.769531-24 24-24h40v-92.058594l128-93.863281 128 93.863281v92.058594h40c13.230469 0 24 10.765625 24 24v56h-16v-32h-56v16h-16v32h56v80h16v-36c0-24.265625 19.734375-44 44-44s44 19.734375 44 44v20.71875c22.664062 3.832031 40 23.542969 40 47.28125zm-200-96v64h40v-64zm-16-48h-16v123.054687l16-8zm-208 0v-16h-56v144h16v-96h56v-32zm-24 128h40v-80h-40zm56 0h16v-128h-16zm32 0h32v-128h-32zm48 0h16v-128h-16zm32 0h32v-128h-32zm80-148.320313-104-89.144531-104 89.144531v4.320313h208zm64-27.679687h-71.703125l18.664063 16h61.039062v-8c0-4.410156-3.59375-8-8-8zm-168-182.082031-95.558594 70.082031h191.117188zm-112 166.082031h34.375l77.625-66.539063 77.625 66.539063h34.375v-80h-224zm-64 24v8h61.039062l18.664063-16h-71.703125c-4.40625 0-8 3.589844-8 8zm352 208v-40h-78.113281l-32 16h-241.886719v24c0 4.40625 3.59375 8 8 8h104v48h112v-32h-96v-16h216c4.40625 0 8-3.59375 8-8zm48-24v8h24v-24h16v24h24v-8c0-17.648437-14.351562-32-32-32s-32 14.351563-32 32zm64 48v-24h-64v24c0 17.644531 14.351562 32 32 32s32-14.355469 32-32zm-192-312h-16v16h16zm-32 0h-16v16h16zm-112 0h-16v16h16zm-48 0v16h16v-16zm0 0" fill="url(#a)"/></svg>